<svg xmlns="http://www.w3.org/2000/svg" width="86" height="20" viewBox="0 0 86 20">
	<path fill="#63697e" d="M80.4825434 7.6 C79.6428902 5.2 76.8 4.3 74.7 5.8 C73.640578 6.6 73.1 7.7 72.9 9.1 C72.717341 11.2 73.5 13.9 76.3 14.3 C77.803237 14.5 79.1 14.1 80.3 13.1 C80.6499422 12.8 80.8 12.4 80.5 12 C80.1095954 11.5 79.8 11.9 79.5 12.1 C79.006474 12.3 78.6 12.7 78.1 12.8 C76.1507514 13.5 74.4 12.3 74.5 10.3 L75.1368786 10.3 C76.7545665 10.3 78.4 10.3 80 10.3 C80.6107514 10.3 80.9 10.1 80.8 9.5 C80.7673988 8.9 80.7 8.2 80.5 7.6 L80.4825434 7.6 Z M74.4860116 9.1 C74.6315607 7.2 75.5 6.4 77.1 6.5 C78.3723699 6.6 79.3 7.7 79.3 9.1 L74.4860116 9.1 Z M57.3442775 7.7 C56.8 6.3 55.8 5.3 54.2 5.1 C52.5988439 4.9 51.4 5.6 50.5 7 C49.7004624 8.3 49.5 9.7 49.9 11.1 C50.2538728 12.4 50.8 13.4 52.1 14 C53.3796532 14.5 54.7 14.5 55.9 13.9 C56.4223121 13.6 56.9 13.3 57.3 13 C57.5559538 12.7 57.6 12.3 57.3 11.9 C56.952948 11.6 56.7 11.9 56.4 12 C56.2146821 12.1 56.1 12.3 55.9 12.4 C54.9241618 13 53.9 13.2 52.9 12.8 C51.8095954 12.4 51.4 11.5 51.3 10.4 C51.506474 10.3 51.7 10.3 51.8 10.3 C53.4801156 10.3 55.1 10.3 56.8 10.3 C57.4839306 10.3 57.7 10.1 57.7 9.4 C57.6411561 8.8 57.6 8.2 57.3 7.7 Z M51.3552601 9.1 C51.3450867 7.4 52.2 6.5 53.8 6.5 C55.2189595 6.5 56.1 7.5 56.1 9.1 L51.3552601 9.1 Z M25.7885549 1.5 C25.6163006 0.6 25 0.1 24.2 0.1 C23.3331792 0.1 22.9 0.5 22.7 1.5 C21.8298266 5.8 21 10.2 20.1 14.5 C20.0690173 14.7 20 14.8 20 15.1 C19.8746821 14.8 19.8 14.6 19.8 14.5 C18.9784971 11.6 18.2 8.8 17.4 5.9 C17.2065896 5.3 16.9 4.8 16.2 4.7 C15.2108671 4.6 14.5 5.1 14.3 6.1 C13.8946821 7.9 13.5 9.7 13.1 11.6 C12.770289 12.9 12.5 14.2 12.2 15.6 C12.1078613 16.3 12.5 16.7 13.1 16.8 C13.785896 16.9 14.2 16.6 14.4 15.9 C14.6505202 14.5 14.9 13.2 15.2 11.8 C15.3978035 10.7 15.6 9.5 15.9 8.3 C16.2817341 9.3 16.6 10.4 16.9 11.4 C17.5453179 13.9 18.2 16.4 18.9 19 C19.1364162 19.7 19.4 19.9 20.1 19.9 C20.699422 19.9 21 19.6 21.2 18.8 C21.9569942 15 22.7 11.1 23.5 7.2 C23.6990751 6.1 23.9 5.1 24.1 4 C24.176763 4 24.2 4 24.2 4 C24.4060116 4.9 24.6 5.9 24.7 6.9 C25.0646243 9 25.4 11.2 25.7 13.4 C25.8357225 13.9 26.2 14.2 26.7 14.3 C27.6003468 14.3 28 13.8 27.9 12.7 C27.1868208 9 26.5 5.2 25.8 1.5 Z M34.9309827 5.8 C34.9239306 5.6 34.7 5.3 34.5 5.2 C34.2654335 5.1 33.9 5.2 33.7 5.4 C33.5510983 5.5 33.4 5.8 33.4 6 C33.4151445 8.5 33.4 11 33.4 13.5 C33.4301734 14 33.8 14.4 34.3 14.3 C34.8352601 14.3 35 13.9 35 13.4 C34.9445087 12.2 35 11 35 9.7 C34.9517919 8.4 35 7.1 34.9 5.8 Z M10.1958382 5.4 C9.4899422 5.4 9.1 5.8 9.1 6.7 C9.0982659 8.2 9.1 9.6 9.1 11 C9.1017341 12.5 9.1 14 9.1 15.5 C9.10693642 16.4 9.5 16.8 10.2 16.8 C10.866474 16.8 11.3 16.4 11.3 15.6 C11.2716763 12.6 11.3 9.6 11.3 6.7 C11.2646243 5.8 10.9 5.4 10.2 5.4 Z M34.2410405 2.1 C33.7557225 2.1 33.3 2.5 33.3 3 C33.3109827 3.5 33.7 3.9 34.2 3.9 C34.7787283 3.9 35.2 3.6 35.2 3.1 C35.1731792 2.6 34.7 2.1 34.2 2.1 Z M6.78520231 14.4 C6.58936416 14.5 6.4 14.6 6.2 14.7 C4.84797688 15.2 3.5 14.8 2.8 13.5 C2.16046243 12.3 2.1 11.1 2.4 9.8 C2.93687861 7.6 4.5 6.8 6.6 7.7 C6.75260116 7.8 7 7.9 7.2 7.9 C7.47248555 7.8 7.9 7.7 8 7.4 C8.17976879 7.2 8.2 6.8 8.1 6.5 C7.95549133 6.2 7.6 6 7.4 5.8 C5.23271676 4.7 2.3 5.5 1 7.5 C0.326705202 8.6 0.1 9.8 0.1 11.1 C0.096416185 11.3 0.1 11.5 0.1 11.8 C0.251676301 15.1 2.7 17.2 6 16.8 C6.60578035 16.7 7.3 16.3 7.8 15.9 C8.24254335 15.7 8.3 15 8 14.6 C7.65884393 14.2 7.2 14.2 6.8 14.4 Z M10.1982659 2.2 C9.48751445 2.2 8.9 2.8 8.9 3.5 C8.8817341 4.2 9.5 4.7 10.2 4.8 C10.876763 4.8 11.5 4.2 11.5 3.5 C11.4790751 2.8 10.9 2.2 10.2 2.2 Z M84.194104 5.1 C84.194104 4.6 84.2 4 84.2 3.4 C84.1847399 2.9 83.9 2.5 83.4 2.5 C82.8978035 2.5 82.7 2.8 82.7 3.4 C82.6587283 4 82.7 4.6 82.7 5.2 C82.067052 5.3 81.4 5 81.3 5.8 C81.2753757 6.8 82.1 6.5 82.7 6.6 L82.6589595 7.5 C82.6589595 9.5 82.7 11.5 82.7 13.5 C82.6656647 14.1 83.1 14.5 83.6 14.3 C84.0627746 14.2 84.2 13.8 84.2 13.3 C84.1720231 11.3 84.2 9.3 84.2 7.2 L84.1618497 6.6 C84.7398844 6.5 85.5 6.7 85.5 5.9 C85.5685549 5 84.7 5.3 84.2 5.1 Z M69.523237 5.3 C68.1922543 4.9 67 5.1 66 6.1 C65.8922543 5.8 65.8 5.5 65.6 5.3 C65.4558382 5.2 65 5.1 64.9 5.2 C64.6189595 5.4 64.4 5.8 64.4 6.1 C64.3572254 8.5 64.4 10.9 64.4 13.3 C64.3759538 14 64.7 14.4 65.2 14.3 C65.6930636 14.3 65.9 14 65.9 13.3 C65.906474 11.8 65.9 10.3 65.9 8.8 C65.9144509 7.6 66.4 6.8 67.3 6.6 C68.8105202 6.1 70 7 70 8.6 C70.0576879 10.2 70 11.8 70 13.4 C70.0489017 14 70.3 14.3 70.8 14.3 C71.2033526 14.4 71.6 14 71.6 13.5 C71.5491329 11.5 71.6 9.6 71.4 7.7 C71.3700578 6.5 70.6 5.7 69.5 5.3 Z M40.6848555 5.1 C39.8211561 5.2 39.1 5.5 38.6 6.2 C38.4157225 5.8 38.4 5.5 38.2 5.3 C37.9868208 5.2 37.5 5.1 37.4 5.2 C37.1482081 5.4 36.9 5.7 36.9 6 C36.8789595 8.5 36.9 11 36.9 13.4 C36.9008092 14 37.3 14.4 37.7 14.3 C38.207052 14.3 38.4 14.1 38.4 13.4 C38.4269364 11.9 38.4 10.3 38.4 8.8 C38.4350289 7.6 39 6.8 39.9 6.6 C41.3804624 6.1 42.6 7.1 42.6 8.7 C42.5975723 10.3 42.6 11.8 42.6 13.4 C42.5893642 14.1 42.8 14.3 43.3 14.3 C43.7974566 14.3 44.1 14 44.1 13.4 C44.1265896 11.7 44.2 10 44.1 8.4 C44.0588439 6.3 42.7 5 40.7 5.1 Z M48.0008092 5.1 C48.0008092 4.5 48 4 48 3.4 C47.9876301 2.8 47.7 2.5 47.2 2.5 C46.7077457 2.5 46.5 2.8 46.5 3.4 C46.4667052 4 46.5 4.6 46.5 5.2 C45.8655491 5.3 45.1 5 45.1 5.9 C45.1245087 6.8 45.9 6.5 46.5 6.6 L46.4739884 9.8 C46.4739884 11 46.5 12.3 46.5 13.5 C46.4719075 14 46.7 14.3 47.2 14.3 C47.6300578 14.4 47.9 14 48 13.5 C47.9964162 13.4 48 13.3 48 13.2 L47.9768786 7.2 L47.9768786 6.6 C48.5549133 6.5 49.3 6.7 49.3 5.9 C49.3386127 5 48.5 5.3 48 5.1 Z M62.812948 5.2 C62.5500578 5.1 62.2 5.2 61.9 5.4 C61.4569942 5.7 61.1 6.1 60.7 6.5 C60.6263584 6.1 60.7 5.7 60.5 5.5 C60.3877457 5.3 59.9 5.1 59.7 5.2 C59.4249711 5.3 59.1 5.7 59.1 6 C59.0766474 8.5 59.1 11 59.1 13.4 C59.102659 14 59.5 14.3 59.9 14.3 C60.4009249 14.3 60.6 14.1 60.6 13.4 C60.6287861 12.1 60.6 10.8 60.6 9.5 C60.6483237 8.5 60.8 7.6 61.7 7.1 C62.1372254 6.9 62.6 6.8 63 6.6 C63.2667052 6.4 63.6 6 63.5 5.8 C63.4727168 5.5 63.1 5.2 62.8 5.2 Z"></path>
</svg>